<svg width="472" height="58" viewBox="0 0 472 58" fill="none" xmlns="http://www.w3.org/2000/svg">
<rect x="29" y="27" width="69" height="5" fill="#F8FAFC"/>
<path d="M153.636 52V5.45454H159.273V26.1818H184.091V5.45454H189.727V52H184.091V31.1818H159.273V52H153.636ZM214.466 52.7273C211.314 52.7273 208.549 51.9773 206.17 50.4773C203.807 48.9773 201.958 46.8788 200.625 44.1818C199.307 41.4848 198.648 38.3333 198.648 34.7273C198.648 31.0909 199.307 27.9167 200.625 25.2045C201.958 22.4924 203.807 20.3864 206.17 18.8864C208.549 17.3864 211.314 16.6364 214.466 16.6364C217.617 16.6364 220.375 17.3864 222.739 18.8864C225.117 20.3864 226.966 22.4924 228.284 25.2045C229.617 27.9167 230.284 31.0909 230.284 34.7273C230.284 38.3333 229.617 41.4848 228.284 44.1818C226.966 46.8788 225.117 48.9773 222.739 50.4773C220.375 51.9773 217.617 52.7273 214.466 52.7273ZM214.466 47.9091C216.86 47.9091 218.83 47.2955 220.375 46.0682C221.92 44.8409 223.064 43.2273 223.807 41.2273C224.549 39.2273 224.92 37.0606 224.92 34.7273C224.92 32.3939 224.549 30.2197 223.807 28.2045C223.064 26.1894 221.92 24.5606 220.375 23.3182C218.83 22.0758 216.86 21.4545 214.466 21.4545C212.072 21.4545 210.102 22.0758 208.557 23.3182C207.011 24.5606 205.867 26.1894 205.125 28.2045C204.383 30.2197 204.011 32.3939 204.011 34.7273C204.011 37.0606 204.383 39.2273 205.125 41.2273C205.867 43.2273 207.011 44.8409 208.557 46.0682C210.102 47.2955 212.072 47.9091 214.466 47.9091ZM238.472 52V17.0909H243.653V22.5455H244.108C244.835 20.6818 246.009 19.2348 247.631 18.2045C249.252 17.1591 251.199 16.6364 253.472 16.6364C255.775 16.6364 257.691 17.1591 259.222 18.2045C260.767 19.2348 261.972 20.6818 262.835 22.5455H263.199C264.093 20.7424 265.434 19.3106 267.222 18.25C269.009 17.1742 271.153 16.6364 273.653 16.6364C276.775 16.6364 279.328 17.6136 281.312 19.5682C283.297 21.5076 284.29 24.5303 284.29 28.6364V52H278.926V28.6364C278.926 26.0606 278.222 24.2197 276.812 23.1136C275.403 22.0076 273.744 21.4545 271.835 21.4545C269.381 21.4545 267.479 22.197 266.131 23.6818C264.782 25.1515 264.108 27.0152 264.108 29.2727V52H258.653V28.0909C258.653 26.1061 258.009 24.5076 256.722 23.2955C255.434 22.0682 253.775 21.4545 251.744 21.4545C250.35 21.4545 249.047 21.8258 247.835 22.5682C246.638 23.3106 245.669 24.3409 244.926 25.6591C244.199 26.9621 243.835 28.4697 243.835 30.1818V52H238.472ZM308.278 52.7273C305.127 52.7273 302.362 51.9773 299.983 50.4773C297.619 48.9773 295.771 46.8788 294.438 44.1818C293.119 41.4848 292.46 38.3333 292.46 34.7273C292.46 31.0909 293.119 27.9167 294.438 25.2045C295.771 22.4924 297.619 20.3864 299.983 18.8864C302.362 17.3864 305.127 16.6364 308.278 16.6364C311.43 16.6364 314.188 17.3864 316.551 18.8864C318.93 20.3864 320.778 22.4924 322.097 25.2045C323.43 27.9167 324.097 31.0909 324.097 34.7273C324.097 38.3333 323.43 41.4848 322.097 44.1818C320.778 46.8788 318.93 48.9773 316.551 50.4773C314.188 51.9773 311.43 52.7273 308.278 52.7273ZM308.278 47.9091C310.672 47.9091 312.642 47.2955 314.188 46.0682C315.733 44.8409 316.877 43.2273 317.619 41.2273C318.362 39.2273 318.733 37.0606 318.733 34.7273C318.733 32.3939 318.362 30.2197 317.619 28.2045C316.877 26.1894 315.733 24.5606 314.188 23.3182C312.642 22.0758 310.672 21.4545 308.278 21.4545C305.884 21.4545 303.915 22.0758 302.369 23.3182C300.824 24.5606 299.68 26.1894 298.938 28.2045C298.195 30.2197 297.824 32.3939 297.824 34.7273C297.824 37.0606 298.195 39.2273 298.938 41.2273C299.68 43.2273 300.824 44.8409 302.369 46.0682C303.915 47.2955 305.884 47.9091 308.278 47.9091ZM345.466 52.7273C342.557 52.7273 339.989 51.9924 337.761 50.5227C335.534 49.0379 333.792 46.947 332.534 44.25C331.277 41.5379 330.648 38.3333 330.648 34.6364C330.648 30.9697 331.277 27.7879 332.534 25.0909C333.792 22.3939 335.542 20.3106 337.784 18.8409C340.027 17.3712 342.617 16.6364 345.557 16.6364C347.83 16.6364 349.625 17.0152 350.943 17.7727C352.277 18.5152 353.292 19.3636 353.989 20.3182C354.701 21.2576 355.254 22.0303 355.648 22.6364H356.102V5.45454H361.466V52H356.284V46.6364H355.648C355.254 47.2727 354.693 48.0758 353.966 49.0455C353.239 50 352.201 50.8561 350.852 51.6136C349.504 52.3561 347.708 52.7273 345.466 52.7273ZM346.193 47.9091C348.345 47.9091 350.163 47.3485 351.648 46.2273C353.133 45.0909 354.261 43.5227 355.034 41.5227C355.807 39.5076 356.193 37.1818 356.193 34.5455C356.193 31.9394 355.814 29.6591 355.057 27.7045C354.299 25.7348 353.178 24.2045 351.693 23.1136C350.208 22.0076 348.375 21.4545 346.193 21.4545C343.92 21.4545 342.027 22.0379 340.511 23.2045C339.011 24.3561 337.883 25.9242 337.125 27.9091C336.383 29.8788 336.011 32.0909 336.011 34.5455C336.011 37.0303 336.39 39.2879 337.148 41.3182C337.92 43.3333 339.057 44.9394 340.557 46.1364C342.072 47.3182 343.951 47.9091 346.193 47.9091ZM386.67 52.7273C383.307 52.7273 380.405 51.9848 377.966 50.5C375.542 49 373.67 46.9091 372.352 44.2273C371.049 41.5303 370.398 38.3939 370.398 34.8182C370.398 31.2424 371.049 28.0909 372.352 25.3636C373.67 22.6212 375.504 20.4848 377.852 18.9545C380.216 17.4091 382.973 16.6364 386.125 16.6364C387.943 16.6364 389.739 16.9394 391.511 17.5455C393.284 18.1515 394.898 19.1364 396.352 20.5C397.807 21.8485 398.966 23.6364 399.83 25.8636C400.693 28.0909 401.125 30.8333 401.125 34.0909V36.3636H374.216V31.7273H395.67C395.67 29.7576 395.277 28 394.489 26.4545C393.716 24.9091 392.61 23.6894 391.17 22.7955C389.746 21.9015 388.064 21.4545 386.125 21.4545C383.989 21.4545 382.14 21.9848 380.58 23.0455C379.034 24.0909 377.845 25.4545 377.011 27.1364C376.178 28.8182 375.761 30.6212 375.761 32.5455V35.6364C375.761 38.2727 376.216 40.5076 377.125 42.3409C378.049 44.1591 379.33 45.5455 380.966 46.5C382.602 47.4394 384.504 47.9091 386.67 47.9091C388.08 47.9091 389.352 47.7121 390.489 47.3182C391.64 46.9091 392.633 46.303 393.466 45.5C394.299 44.6818 394.943 43.6667 395.398 42.4545L400.58 43.9091C400.034 45.6667 399.117 47.2121 397.83 48.5455C396.542 49.8636 394.951 50.8939 393.057 51.6364C391.163 52.3636 389.034 52.7273 386.67 52.7273ZM431.284 37.7273V17.0909H436.648V52H431.284V46.0909H430.92C430.102 47.8636 428.83 49.3712 427.102 50.6136C425.375 51.8409 423.193 52.4545 420.557 52.4545C418.375 52.4545 416.436 51.9773 414.739 51.0227C413.042 50.053 411.708 48.5985 410.739 46.6591C409.769 44.7045 409.284 42.2424 409.284 39.2727V17.0909H414.648V38.9091C414.648 41.4545 415.36 43.4848 416.784 45C418.223 46.5152 420.057 47.2727 422.284 47.2727C423.617 47.2727 424.973 46.9318 426.352 46.25C427.746 45.5682 428.913 44.5227 429.852 43.1136C430.807 41.7045 431.284 39.9091 431.284 37.7273ZM471.199 24.9091L466.381 26.2727C466.078 25.4697 465.631 24.6894 465.04 23.9318C464.464 23.1591 463.676 22.5227 462.676 22.0227C461.676 21.5227 460.396 21.2727 458.835 21.2727C456.699 21.2727 454.919 21.7652 453.494 22.75C452.085 23.7197 451.381 24.9545 451.381 26.4545C451.381 27.7879 451.866 28.8409 452.835 29.6136C453.805 30.3864 455.32 31.0303 457.381 31.5455L462.562 32.8182C465.684 33.5758 468.009 34.7348 469.54 36.2955C471.07 37.8409 471.835 39.8333 471.835 42.2727C471.835 44.2727 471.259 46.0606 470.108 47.6364C468.972 49.2121 467.381 50.4545 465.335 51.3636C463.29 52.2727 460.911 52.7273 458.199 52.7273C454.638 52.7273 451.691 51.9545 449.358 50.4091C447.025 48.8636 445.547 46.6061 444.926 43.6364L450.017 42.3636C450.502 44.2424 451.419 45.6515 452.767 46.5909C454.131 47.5303 455.911 48 458.108 48C460.608 48 462.593 47.4697 464.062 46.4091C465.547 45.3333 466.29 44.0455 466.29 42.5455C466.29 41.3333 465.866 40.3182 465.017 39.5C464.169 38.6667 462.866 38.0455 461.108 37.6364L455.29 36.2727C452.093 35.5152 449.744 34.3409 448.244 32.75C446.759 31.1439 446.017 29.1364 446.017 26.7273C446.017 24.7576 446.57 23.0152 447.676 21.5C448.797 19.9848 450.32 18.7955 452.244 17.9318C454.184 17.0682 456.381 16.6364 458.835 16.6364C462.29 16.6364 465.002 17.3939 466.972 18.9091C468.956 20.4242 470.366 22.4242 471.199 24.9091Z" fill="#837DFF"/>
<path d="M22 52C22 18.6233 22 7.42636 22 6" stroke="#837DFF" stroke-width="12" stroke-linecap="square"/>
<path d="M6 46C6 21.3302 6 13.0543 6 12" stroke="#837DFF" stroke-width="12" stroke-linecap="square"/>
<path d="M122 46C122 21.3302 122 13.0543 122 12" stroke="#837DFF" stroke-width="12" stroke-linecap="square"/>
<path d="M106 52C106 18.6233 106 7.42636 106 6" stroke="#837DFF" stroke-width="12" stroke-linecap="square"/>
</svg>
